<?xml version="1.0" encoding="UTF-8"?><svg id="Layer_2" xmlns="http://www.w3.org/2000/svg" xmlns:xlink="http://www.w3.org/1999/xlink" viewBox="0 0 1920.5 1080"><defs><style>.cls-1{fill:#fff;}.cls-2{fill:#1e1e1e;}.cls-3{fill:url(#linear-gradient-3);}.cls-4{fill:url(#linear-gradient-4);}.cls-5{fill:url(#linear-gradient-2);}.cls-6{stroke:url(#linear-gradient);}.cls-6,.cls-7,.cls-8,.cls-9{fill:none;stroke-miterlimit:10;}.cls-7,.cls-8{stroke:#fff;}.cls-8{stroke-width:4.25px;}.cls-9{stroke:url(#linear-gradient-5);stroke-width:3.6px;}</style><linearGradient id="linear-gradient" x1="142.4" y1="635.89" x2="516.49" y2="450.99" gradientTransform="translate(431.67 -83.78) rotate(40.48)" gradientUnits="userSpaceOnUse"><stop offset="0" stop-color="#ed1e79"/><stop offset=".2" stop-color="#ed2a67"/><stop offset=".6" stop-color="#ef493a"/><stop offset=".78" stop-color="#f15a24"/><stop offset="1" stop-color="#f7931e"/></linearGradient><linearGradient id="linear-gradient-2" x1="165.82" y1="678.3" x2="699.1" y2="813.05" gradientTransform="translate(-102.88 -20.86)" xlink:href="#linear-gradient"/><linearGradient id="linear-gradient-3" x1="1850.51" y1="457.27" x2="1939.1" y2="432.16" gradientTransform="matrix(1, 0, 0, 1, 0, 0)" xlink:href="#linear-gradient"/><linearGradient id="linear-gradient-4" x1="235.78" y1="284.42" x2="267.73" y2="284.42" gradientTransform="matrix(1, 0, 0, 1, 0, 0)" xlink:href="#linear-gradient"/><linearGradient id="linear-gradient-5" x1="440.98" y1="994.28" x2="473.59" y2="994.28" gradientTransform="matrix(1, 0, 0, 1, 0, 0)" xlink:href="#linear-gradient"/></defs><g id="Layer_1-2"><rect class="cls-2" width="1920" height="1080"/><rect class="cls-7" x="378.99" y="466.95" width="274.37" height="274.37" rx="74.19" ry="74.19" transform="translate(-268.64 479.74) rotate(-40.48)"/><rect class="cls-6" x="144.95" y="358.94" width="368.98" height="368.98" rx="74.19" ry="74.19" transform="translate(-273.94 343.98) rotate(-40.48)"/><rect class="cls-5" x="90.02" y="485.25" width="479.11" height="479.11" rx="74.19" ry="74.19" transform="translate(-391.66 387.48) rotate(-40.48)"/><g><path class="cls-1" d="M531.25,623.06c.11,4.07-.1,8.14-.63,12.18l.48-3.59c-.91,6.71-2.69,13.25-5.31,19.49l1.36-3.22c-2.58,6.09-5.92,11.82-9.95,17.06l2.11-2.73c-3.94,5.08-8.5,9.65-13.57,13.6l2.73-2.11c-5.21,4.02-10.92,7.35-16.98,9.92l3.22-1.36c-6.3,2.63-12.91,4.43-19.67,5.35l3.59-.48c-6.71,.88-13.49,.87-20.2-.03l3.59,.48c-6.66-.93-13.17-2.72-19.37-5.33l3.22,1.36c-6.05-2.58-11.74-5.91-16.95-9.92l2.73,2.11c-5.14-4-9.76-8.62-13.74-13.77l2.11,2.73c-3.91-5.11-7.16-10.69-9.69-16.62l1.36,3.22c-2.66-6.33-4.48-12.99-5.41-19.8l.48,3.59c-.88-6.71-.87-13.49,.03-20.2l-.48,3.59c.93-6.66,2.72-13.17,5.33-19.37l-1.36,3.22c2.58-6.05,5.91-11.74,9.92-16.95l-2.11,2.73c4-5.14,8.62-9.76,13.77-13.74l-2.73,2.11c5.11-3.91,10.69-7.16,16.62-9.69l-3.22,1.36c6.31-2.66,12.95-4.47,19.74-5.4l-3.59,.48c6.62-.87,13.31-.88,19.93-.02l-3.59-.48c6.72,.91,13.29,2.69,19.55,5.31l-3.22-1.36c6.09,2.58,11.82,5.92,17.07,9.95l-2.73-2.11c3.94,3.06,7.57,6.48,10.86,10.23,2.19,2.5,6.32,3.95,9.55,3.95s7.27-1.47,9.55-3.95,4.12-5.95,3.95-9.55-1.5-6.74-3.95-9.55c-11.41-13.03-27.1-22.6-43.82-27.06-8.46-2.26-17.47-3.34-26.23-2.98s-17.9,1.93-26.29,4.94c-14.83,5.33-28.5,14.18-38.62,26.36s-17.25,26.14-19.95,41.53c-1.37,7.83-2.03,15.75-1.29,23.68s2.32,16.33,5.3,24.05,6.38,14.6,11.16,21.04,9.74,12.09,15.88,16.97,12.51,9.18,19.71,12.32c7.17,3.13,14.43,5.67,22.19,6.85,7.97,1.22,15.89,1.77,23.92,.82,8.27-.98,16.25-2.64,23.97-5.82,4.27-1.76,8.46-3.61,12.44-5.95s7.53-4.99,11.1-7.8c6.28-4.94,11.47-10.81,16.23-17.21s8.28-13.5,11.2-20.93c2.94-7.48,4.45-15.27,5.31-23.23,.37-3.42,.49-6.86,.4-10.29s-1.44-7.03-3.95-9.55c-2.34-2.34-6.18-4.1-9.55-3.95s-7.11,1.3-9.55,3.95-4.05,5.92-3.95,9.55h0Z"/><path class="cls-1" d="M563.37,588.23c3.08,8.2,5.24,16.72,6.41,25.4l-.48-3.59c1.33,10.15,1.31,20.41-.04,30.56l.48-3.59c-1.4,10.19-4.12,20.16-8.12,29.64l1.36-3.22c-3.82,9-8.77,17.47-14.73,25.22l2.11-2.73c-6,7.76-12.96,14.73-20.71,20.74l2.73-2.11c-7.9,6.1-16.56,11.17-25.75,15.07l3.22-1.36c-9.38,3.95-19.25,6.66-29.34,8.04l3.59-.48c-10.13,1.36-20.4,1.36-30.54,.02l3.59,.48c-10.27-1.39-20.32-4.12-29.87-8.15l3.22,1.36c-9-3.82-17.47-8.77-25.22-14.73l2.73,2.11c-7.76-6-14.73-12.96-20.74-20.71l2.11,2.73c-6.1-7.9-11.17-16.56-15.07-25.75l1.36,3.22c-3.95-9.38-6.66-19.25-8.04-29.34l.48,3.59c-1.36-10.13-1.36-20.4-.02-30.54l-.48,3.59c1.39-10.27,4.12-20.32,8.15-29.87l-1.36,3.22c3.82-9,8.77-17.47,14.73-25.22l-2.11,2.73c6-7.76,12.96-14.73,20.71-20.74l-2.73,2.11c7.9-6.1,16.56-11.17,25.75-15.07l-3.22,1.36c9.38-3.95,19.25-6.66,29.34-8.04l-3.59,.48c10.13-1.36,20.4-1.36,30.54-.02l-3.59-.48c10.23,1.38,20.24,4.11,29.76,8.1l-3.22-1.36c1.52,.64,3.02,1.32,4.51,2.02,1.55,.99,3.22,1.52,5.02,1.6,1.79,.4,3.59,.32,5.38-.24,3.13-.86,6.53-3.28,8.07-6.2,1.66-3.13,2.49-6.93,1.36-10.4-1.03-3.18-3.07-6.59-6.2-8.07-6.94-3.27-14.12-6.12-21.51-8.19-6.55-1.83-13.19-2.95-19.93-3.82-11.31-1.46-22.5-1.01-33.77,.54-9.86,1.36-19.52,3.96-28.72,7.78-10.14,4.22-19.74,9.23-28.52,15.87s-16.83,13.94-23.67,22.6-12.9,17.97-17.33,28.22-8.07,21.41-9.71,32.84-2.18,22.49-.79,33.82,3.68,21.76,7.8,32.1c4.07,10.18,9.01,19.88,15.51,28.74s13.75,17.02,22.27,23.96,17.81,13.12,27.95,17.69,21.31,8.34,32.68,10.15,22.54,2.47,33.88,1.25,21.85-3.42,32.24-7.39,20.01-8.79,28.94-15.14c17.96-12.77,32.99-29.73,42.35-49.78,5.15-11.02,9.01-22.54,10.88-34.58,1.2-7.77,1.97-15.57,1.81-23.44s-1.09-15.54-2.57-23.15c-1.24-6.36-3.03-12.6-5.31-18.66-1.27-3.37-3-6.19-6.2-8.07-2.89-1.69-7.16-2.41-10.4-1.36s-6.42,3.08-8.07,6.2-2.62,7.04-1.36,10.4h0Z"/><circle class="cls-1" cx="552.16" cy="547.74" r="12.18"/><circle class="cls-1" cx="539.98" cy="597.12" r="7.17"/><path class="cls-1" d="M492.88,626.44c0,1.62-.11,3.23-.32,4.84l.48-3.59c-.44,3.23-1.29,6.36-2.55,9.37l1.36-3.22c-1.25,2.92-2.86,5.66-4.8,8.18l2.11-2.73c-1.88,2.4-4.04,4.55-6.44,6.44l2.73-2.11c-2.52,1.94-5.26,3.55-8.18,4.8l3.22-1.36c-3,1.25-6.14,2.11-9.37,2.55l3.59-.48c-3.22,.41-6.46,.41-9.68,0l3.59,.48c-3.23-.44-6.36-1.29-9.37-2.55l3.22,1.36c-2.92-1.25-5.66-2.86-8.18-4.8l2.73,2.11c-2.4-1.88-4.55-4.04-6.44-6.44l2.11,2.73c-1.94-2.52-3.55-5.26-4.8-8.18l1.36,3.22c-1.25-3-2.11-6.14-2.55-9.37l.48,3.59c-.41-3.22-.41-6.46,0-9.68l-.48,3.59c.44-3.23,1.29-6.36,2.55-9.37l-1.36,3.22c1.25-2.92,2.86-5.66,4.8-8.18l-2.11,2.73c1.88-2.4,4.04-4.55,6.44-6.44l-2.73,2.11c2.52-1.94,5.26-3.55,8.18-4.8l-3.22,1.36c3-1.25,6.14-2.11,9.37-2.55l-3.59,.48c3.22-.41,6.46-.41,9.68,0l-3.59-.48c3.23,.44,6.36,1.29,9.37,2.55l-3.22-1.36c2.92,1.25,5.66,2.86,8.18,4.8l-2.73-2.11c2.4,1.88,4.55,4.04,6.44,6.44l-2.11-2.73c1.94,2.52,3.55,5.26,4.8,8.18l-1.36-3.22c1.25,3,2.11,6.14,2.55,9.37l-.48-3.59c.21,1.61,.31,3.22,.32,4.84,.02,3.47,1.49,7.09,3.95,9.55s6.18,4.1,9.55,3.95,7.11-1.3,9.55-3.95,3.97-5.89,3.95-9.55c-.02-5.02-.73-10.22-2.3-15s-3.58-9.21-6.43-13.16c-1.68-2.33-3.45-4.66-5.46-6.73s-4.38-3.91-6.74-5.69c-3.88-2.95-8.25-4.98-12.82-6.67s-9.87-2.52-14.85-2.71c-1.97-.08-3.94,.02-5.9,.25-3.05,.36-6.1,.75-9.06,1.59-9.19,2.6-18.11,8.02-24.2,15.44-1.86,2.27-3.7,4.61-5.21,7.13s-2.67,5.31-3.8,8.07c-1.88,4.63-2.71,9.57-3.1,14.53s.2,10.2,1.36,15.05,3.1,9.44,5.63,13.6,5.6,8.03,9.2,11.21,7.54,6.07,11.91,8.04c2.72,1.22,5.49,2.42,8.38,3.23s5.91,1.18,8.9,1.54c5.09,.61,10.26,.08,15.28-.92,9.4-1.87,18.54-7.13,25.14-14.03,3.28-3.43,6.27-7.39,8.4-11.65s4.04-9.12,4.78-14.01c.46-3.02,.88-6.04,.9-9.1,.02-3.45-1.52-7.11-3.95-9.55s-6.18-4.1-9.55-3.95-7.11,1.3-9.55,3.95-3.94,5.88-3.95,9.55Z"/></g><path class="cls-1" d="M25.27,620.98v20.99c0,3.5,2.97,6.48,6.48,6.48h19.68l-6.48-6.48v19.02c0,3.5,2.97,6.48,6.48,6.48h19.02l-6.48-6.48v22.96c0,3.5,2.97,6.48,6.48,6.48h22.96l-6.48-6.48v20.99c0,3.39,2.98,6.64,6.48,6.48s6.48-2.85,6.48-6.48v-20.99c0-3.5-2.97-6.48-6.48-6.48h-22.96l6.48,6.48v-22.96c0-3.5-2.97-6.48-6.48-6.48h-19.02l6.48,6.48v-19.02c0-3.5-2.97-6.48-6.48-6.48H31.75l6.48,6.48v-20.99c0-3.39-2.98-6.64-6.48-6.48s-6.48,2.85-6.48,6.48h0Z"/><path class="cls-1" d="M468.45,868.49c0,3.8,0,7.59,0,11.39,0,1.75,1.48,3.24,3.24,3.24,3.56,0,7.12,0,10.68,0l-3.24-3.24c0,3.44,0,6.88,0,10.32,0,1.75,1.48,3.24,3.24,3.24,3.44,0,6.88,0,10.32,0l-3.24-3.24c0,4.15,0,8.31,0,12.46,0,1.75,1.48,3.24,3.24,3.24,4.15,0,8.31,0,12.46,0l-3.24-3.24c0,3.8,0,7.59,0,11.39,0,4.17,6.48,4.18,6.48,0,0-3.8,0-7.59,0-11.39,0-1.75-1.48-3.24-3.24-3.24-4.15,0-8.31,0-12.46,0l3.24,3.24c0-4.15,0-8.31,0-12.46,0-1.75-1.48-3.24-3.24-3.24-3.44,0-6.88,0-10.32,0l3.24,3.24c0-3.44,0-6.88,0-10.32,0-1.75-1.48-3.24-3.24-3.24-3.56,0-7.12,0-10.68,0l3.24,3.24c0-3.8,0-7.59,0-11.39,0-4.17-6.48-4.18-6.48,0h0Z"/><path class="cls-3" d="M1920.5,366.5v144.73c-39.96-.01-72.34-32.41-72.34-72.37s32.38-72.35,72.34-72.36Z"/><circle class="cls-8" cx="1854.19" cy="479.54" r="44.69"/><path class="cls-4" d="M234.34,263.65v10.39c0,1.17,.99,2.16,2.16,2.16h9.74l-2.16-2.16v9.41c0,1.17,.99,2.16,2.16,2.16h9.41l-2.16-2.16v11.36c0,1.17,.99,2.16,2.16,2.16h11.36l-2.16-2.16v10.39c0,2.78,4.32,2.78,4.32,0v-10.39c0-1.17-.99-2.16-2.16-2.16h-11.36l2.16,2.16v-11.36c0-1.17-.99-2.16-2.16-2.16h-9.41l2.16,2.16v-9.41c0-1.17-.99-2.16-2.16-2.16h-9.74l2.16,2.16v-10.39c0-2.78-4.32-2.78-4.32,0h0Z"/><polygon class="cls-1" points="270.98 856.71 241.52 880.01 206.61 866.16 201.15 828.99 230.61 805.69 265.52 819.54 270.98 856.71"/><polygon class="cls-9" points="470.69 1003.21 456.25 1010.35 442.84 1001.42 443.88 985.34 458.32 978.2 471.72 987.14 470.69 1003.21"/></g></svg>